<svg width="140" height="22" viewBox="0 0 140 22" fill="none" xmlns="http://www.w3.org/2000/svg">
<path d="M14.984 19H11.624L4.01601 7.504V19H0.656006V2.224H4.01601L11.624 13.744V2.224H14.984V19Z" fill="#FCDAB7"/>
<path d="M28.5764 15.808H21.9044L20.8004 19H17.2724L23.2964 2.224H27.2084L33.2324 19H29.6804L28.5764 15.808ZM27.6644 13.12L25.2404 6.112L22.8164 13.12H27.6644Z" fill="#FCDAB7"/>
<path d="M41.2681 19.168C40.1001 19.168 39.0441 18.968 38.1001 18.568C37.1721 18.168 36.4361 17.592 35.8921 16.84C35.3481 16.088 35.0681 15.2 35.0521 14.176H38.6521C38.7001 14.864 38.9401 15.408 39.3721 15.808C39.8201 16.208 40.4281 16.408 41.1961 16.408C41.9801 16.408 42.5961 16.224 43.0441 15.856C43.4921 15.472 43.7161 14.976 43.7161 14.368C43.7161 13.872 43.5641 13.464 43.2601 13.144C42.9561 12.824 42.5721 12.576 42.1081 12.4C41.6601 12.208 41.0361 12 40.2361 11.776C39.1481 11.456 38.2601 11.144 37.5721 10.84C36.9001 10.52 36.3161 10.048 35.8201 9.424C35.3401 8.784 35.1001 7.936 35.1001 6.88C35.1001 5.888 35.3481 5.024 35.8441 4.288C36.3401 3.552 37.0361 2.992 37.9321 2.608C38.8281 2.208 39.8521 2.008 41.0041 2.008C42.7321 2.008 44.1321 2.432 45.2041 3.28C46.2921 4.112 46.8921 5.28 47.0041 6.784H43.3081C43.2761 6.208 43.0281 5.736 42.5641 5.368C42.1161 4.984 41.5161 4.792 40.7641 4.792C40.1081 4.792 39.5801 4.96 39.1801 5.296C38.7961 5.632 38.6041 6.12 38.6041 6.76C38.6041 7.208 38.7481 7.584 39.0361 7.888C39.3401 8.176 39.7081 8.416 40.1401 8.608C40.5881 8.784 41.2121 8.992 42.0121 9.232C43.1001 9.552 43.9881 9.872 44.6761 10.192C45.3641 10.512 45.9561 10.992 46.4521 11.632C46.9481 12.272 47.1961 13.112 47.1961 14.152C47.1961 15.048 46.9641 15.88 46.5001 16.648C46.0361 17.416 45.3561 18.032 44.4601 18.496C43.5641 18.944 42.5001 19.168 41.2681 19.168Z" fill="#FCDAB7"/>
<path d="M61.5091 2.248V4.96H57.0451V19H53.6851V4.96H49.2211V2.248H61.5091Z" fill="#FCDAB7"/>
<path d="M71.7367 19.168C70.1687 19.168 68.7287 18.8 67.4167 18.064C66.1047 17.328 65.0647 16.312 64.2967 15.016C63.5287 13.704 63.1447 12.224 63.1447 10.576C63.1447 8.944 63.5287 7.48 64.2967 6.184C65.0647 4.872 66.1047 3.848 67.4167 3.112C68.7287 2.376 70.1687 2.008 71.7367 2.008C73.3207 2.008 74.7607 2.376 76.0567 3.112C77.3687 3.848 78.4007 4.872 79.1527 6.184C79.9207 7.48 80.3047 8.944 80.3047 10.576C80.3047 12.224 79.9207 13.704 79.1527 15.016C78.4007 16.312 77.3687 17.328 76.0567 18.064C74.7447 18.8 73.3047 19.168 71.7367 19.168ZM71.7367 16.168C72.7447 16.168 73.6327 15.944 74.4007 15.496C75.1687 15.032 75.7687 14.376 76.2007 13.528C76.6327 12.68 76.8487 11.696 76.8487 10.576C76.8487 9.456 76.6327 8.48 76.2007 7.648C75.7687 6.8 75.1687 6.152 74.4007 5.704C73.6327 5.256 72.7447 5.032 71.7367 5.032C70.7287 5.032 69.8327 5.256 69.0487 5.704C68.2807 6.152 67.6807 6.8 67.2487 7.648C66.8167 8.48 66.6007 9.456 66.6007 10.576C66.6007 11.696 66.8167 12.68 67.2487 13.528C67.6807 14.376 68.2807 15.032 69.0487 15.496C69.8327 15.944 70.7287 16.168 71.7367 16.168Z" fill="#FCDAB7"/>
<path d="M91.4444 19L87.7484 12.472H86.1644V19H82.8044V2.248H89.0924C90.3884 2.248 91.4924 2.48 92.4044 2.944C93.3164 3.392 93.9964 4.008 94.4444 4.792C94.9084 5.56 95.1404 6.424 95.1404 7.384C95.1404 8.488 94.8204 9.488 94.1804 10.384C93.5404 11.264 92.5884 11.872 91.3244 12.208L95.3324 19H91.4444ZM86.1644 9.952H88.9724C89.8844 9.952 90.5644 9.736 91.0124 9.304C91.4604 8.856 91.6844 8.24 91.6844 7.456C91.6844 6.688 91.4604 6.096 91.0124 5.68C90.5644 5.248 89.8844 5.032 88.9724 5.032H86.1644V9.952Z" fill="#FCDAB7"/>
<path d="M101.539 4.96V9.16H107.179V11.824H101.539V16.264H107.899V19H98.1794V2.224H107.899V4.96H101.539Z" fill="#FCDAB7"/>
<path fill-rule="evenodd" clip-rule="evenodd" d="M123.2 0.4C123.389 0.148194 123.685 0 124 0H136C136.315 0 136.611 0.148194 136.8 0.4L139.8 4.4C139.93 4.5731 140 4.78363 140 5V19C140 19.7957 139.684 20.5587 139.121 21.1213C138.559 21.6839 137.796 22 137 22H123C122.204 22 121.441 21.6839 120.879 21.1213C120.316 20.5587 120 19.7957 120 19V5C120 4.78363 120.07 4.5731 120.2 4.4L123.2 0.4ZM124.5 2L122 5.33333V19C122 19.2652 122.105 19.5196 122.293 19.7071C122.48 19.8946 122.735 20 123 20H137C137.265 20 137.52 19.8946 137.707 19.7071C137.895 19.5196 138 19.2652 138 19V5.33333L135.5 2H124.5Z" fill="#FCDAB7"/>
<path fill-rule="evenodd" clip-rule="evenodd" d="M126 8C126.552 8 127 8.44772 127 9C127 9.79565 127.316 10.5587 127.879 11.1213C128.441 11.6839 129.204 12 130 12C130.796 12 131.559 11.6839 132.121 11.1213C132.684 10.5587 133 9.79565 133 9C133 8.44772 133.448 8 134 8C134.552 8 135 8.44772 135 9C135 10.3261 134.473 11.5979 133.536 12.5355C132.598 13.4732 131.326 14 130 14C128.674 14 127.402 13.4732 126.464 12.5355C125.527 11.5979 125 10.3261 125 9C125 8.44772 125.448 8 126 8Z" fill="#FCDAB7"/>
</svg>
